<svg xmlns="http://www.w3.org/2000/svg" width="343.438" height="222.133" viewBox="0 0 343.438 222.133"><defs><style>.a{fill:#ffdc48;}.b{fill:#ffe76a;}.c{fill:#7c7c7c;}.d{fill:#666;}</style></defs><title>Asset 1</title><path class="a" d="M299.846,93.08l-140-68s-25-11-47-17-36-7-62-8c-24.981-.961-48,7-50,11s-1,17,9,34,28,40,43,53a246.812,246.812,0,0,0,42,29c11,6,151,78,151,78s47.187,6.872,72-31C336.846,145.08,326.846,116.08,299.846,93.08Z"/><path class="b" d="M13.846,37.08s26,26,59,47c16.228,10.327,216,103,216,103l21-66-167-80c-16-9-29-16-54-25-16.432-5.916-27-10-52-11-9.822-.393-17.075-.811-22.482-.548C6.816,6.81,1.722,9.328.846,11.08a5.858,5.858,0,0,0-.324.818C-2.056,20.241,13.846,37.08,13.846,37.08Z"/><ellipse class="c" cx="283.698" cy="154.91" rx="65.19" ry="41" transform="translate(19.202 340.715) rotate(-63.724)"/><ellipse class="d" cx="296.698" cy="160.91" rx="65.19" ry="41" transform="translate(21.067 355.716) rotate(-63.724)"/></svg>