<svg xmlns="http://www.w3.org/2000/svg" width="343.438" height="222.133" viewBox="0 0 343.438 222.133"><defs><style>.a{fill:#ffdc48;}.b{fill:#ffe76a;}.c{fill:#7c7c7c;}.d{fill:#666;}</style></defs><title>Asset 4</title><path class="a" d="M43.592,93.08l140-68s25-11,47-17,36-7,62-8c24.981-.961,48,7,50,11s1,17-9,34-28,40-43,53a246.812,246.812,0,0,1-42,29c-11,6-151,78-151,78s-47.187,6.872-72-31C6.592,145.08,16.592,116.08,43.592,93.08Z"/><path class="b" d="M264.846,12.08c-25,9-231.254,109-231.254,109l18.254,22s197-99,222-112c25.863-13.449,55.939-15.183,69.586-15.194a11.466,11.466,0,0,0-.84-4.806c-1.359-2.718-12.423-7.261-27.209-9.6-1.8-.134-3.638-.27-5.537-.4C295.846.08,281.278,6.164,264.846,12.08Z"/><ellipse class="c" cx="59.74" cy="154.91" rx="41" ry="65.19" transform="translate(-62.405 42.453) rotate(-26.276)"/><ellipse class="d" cx="46.74" cy="160.91" rx="41" ry="65.19" transform="translate(-66.405 37.318) rotate(-26.276)"/></svg>