<svg xmlns="http://www.w3.org/2000/svg" width="343.438" height="222.133" viewBox="0 0 343.438 222.133"><defs><style>.a{fill:#666;}.b{fill:#7c7c7c;}.c{fill:#ffdc48;}.d{fill:#ffe76a;}</style></defs><title>Asset 5</title><ellipse class="a" cx="46.74" cy="61.223" rx="65.19" ry="41" transform="translate(-28.849 76.03) rotate(-63.724)"/><ellipse class="b" cx="59.74" cy="67.223" rx="65.19" ry="41" transform="translate(-26.984 91.031) rotate(-63.724)"/><path class="c" d="M34.846,125.08l148.746,71.973s25,11,47,17,36,7,62,8c24.981.961,48-7,50-11s1-17-9-34-28-40-43-53a246.812,246.812,0,0,0-42-29c-11-6-163.746-84.973-163.746-84.973s-19.639-6.6-42,18C12.846,61.08,6.846,107.08,34.846,125.08Z"/><path class="d" d="M204.846,170.08c46.688,23.343,100.345,29.251,138.187,39.7a11.778,11.778,0,0,0,.318-1.823c-.512-.617-1.016-1.24-1.5-1.877-24-26-43-56-86-83C235.959,110.592,97.816,41.828,52.334,19.26a73.388,73.388,0,0,0-9.488,8.82A104.627,104.627,0,0,0,20.621,65.708C57.133,86.719,184.526,159.92,204.846,170.08Z"/></svg>